# xmcd CD database file
#
# Track frame offsets:
#	150
#	21257
#	36867
#
# Disc length: 771 seconds
#
# Revision: 1
# Processed by: cddbd v1.5PL3 Copyright (c) Steve Scherf et al.
# Submitted via: CDex 1.51
#
DISCID=1d030103
DTITLE=FANATIC◇CRISIS - SUPER SOUL
DYEAR=1997
DGENRE=Rock
TTITLE0=SUPER SOUL
TTITLE1=サーカス
TTITLE2=SUPER SOUL [Vox Less Version]
EXTD=YEAR: 1997
EXTT0=
EXTT1=
EXTT2=
PLAYORDER=
